<svg width="15" height="13" viewBox="0 0 15 13" fill="none" xmlns="http://www.w3.org/2000/svg">
<path d="M7.52154 12.4999C13.402 8.99985 16.4673 3.70906 13.1127 1.26719C10.9125 -0.334388 8.45343 0.941601 7.52154 1.75556H7.50003H7.49997H7.47846C6.54657 0.941601 4.08746 -0.334388 1.88727 1.26719C-1.4673 3.70906 1.59797 8.99985 7.47846 12.4999H7.49997H7.50003H7.52154Z" fill="#B672FF"/>
<path d="M7.49997 1.75556H7.52154C8.45343 0.941601 10.9125 -0.334388 13.1127 1.26719C16.4673 3.70906 13.402 8.99985 7.52154 12.4999H7.49997M7.50003 1.75556H7.47846C6.54657 0.941601 4.08746 -0.334388 1.88727 1.26719C-1.4673 3.70906 1.59797 8.99985 7.47846 12.4999H7.50003" stroke="#B672FF"/>
</svg>
