<svg width="39" height="39" viewBox="0 0 39 39" fill="none" xmlns="http://www.w3.org/2000/svg">
<path d="M19.8294 25.6387C16.4001 25.6387 13.6104 22.8489 13.6104 19.4197C13.6104 15.9904 16.4001 13.2012 19.8294 13.2012C23.2586 13.2012 26.0484 15.991 26.0484 19.4197C26.0484 22.8489 23.2586 25.6387 19.8294 25.6387ZM19.8294 14.4447C17.0862 14.4447 14.8544 16.6765 14.8544 19.4197C14.8544 22.1634 17.0862 24.3947 19.8294 24.3947C22.5726 24.3947 24.8044 22.1634 24.8044 19.4197C24.8044 16.677 22.5726 14.4447 19.8294 14.4447Z" fill="black"/>
<path d="M19.8293 10.8353C19.4857 10.8353 19.2073 10.5563 19.2073 10.2133V7.62148C19.2073 7.27792 19.4857 7 19.8293 7C20.1723 7 20.4513 7.27792 20.4513 7.62148V10.2133C20.4513 10.5563 20.1723 10.8353 19.8293 10.8353Z" fill="black"/>
<path d="M26.0186 13.9967C25.8593 13.9967 25.7005 13.9359 25.5787 13.8146C25.3357 13.5722 25.3357 13.1783 25.5787 12.9353L27.8068 10.7072C28.0498 10.4648 28.4431 10.4648 28.6861 10.7072C28.9291 10.9502 28.9291 11.3441 28.6861 11.5865L26.458 13.8146C26.3368 13.9359 26.178 13.9967 26.0186 13.9967Z" fill="black"/>
<path d="M12.649 13.9967C12.4896 13.9967 12.3303 13.9359 12.2091 13.8146L9.98042 11.5865C9.73797 11.3441 9.73797 10.9502 9.98042 10.7072C10.2234 10.4648 10.6173 10.4648 10.8597 10.7072L13.0884 12.9353C13.3308 13.1783 13.3308 13.5727 13.0884 13.8146C12.9671 13.9359 12.8078 13.9967 12.649 13.9967Z" fill="black"/>
<path d="M19.3337 31.746C18.9901 31.746 18.7117 31.4675 18.7117 31.124V28.5322C18.7117 28.1886 18.9901 27.9102 19.3337 27.9102C19.6767 27.9102 19.9552 28.1886 19.9552 28.5322V31.124C19.9552 31.4675 19.6767 31.746 19.3337 31.746Z" fill="black"/>
<path d="M10.9158 28.2213C10.757 28.2213 10.5977 28.1604 10.4764 28.0392C10.2334 27.7967 10.2334 27.4024 10.4764 27.1594L12.7045 24.9313C12.9475 24.6883 13.3408 24.6883 13.5838 24.9313C13.8268 25.1737 13.8268 25.5676 13.5838 25.8105L11.3557 28.0392C11.2345 28.1604 11.0751 28.2213 10.9158 28.2213Z" fill="black"/>
<path d="M28.7428 28.2213C28.584 28.2213 28.4247 28.1604 28.3029 28.0392L26.0748 25.8105C25.8318 25.5676 25.8318 25.1742 26.0748 24.9313C26.3178 24.6883 26.7111 24.6883 26.9541 24.9313L29.1822 27.1594C29.4252 27.4024 29.4252 27.7957 29.1822 28.0392C29.061 28.1604 28.9022 28.2213 28.7428 28.2213Z" fill="black"/>
<path d="M10.4203 20.0419H7.62201C7.27845 20.0419 7 19.7634 7 19.4199C7 19.0768 7.27845 18.7979 7.62201 18.7979H10.4203C10.7638 18.7979 11.0423 19.0763 11.0423 19.4199C11.0417 19.7634 10.7638 20.0419 10.4203 20.0419Z" fill="black"/>
<path d="M31.5638 20.0419H28.2468C27.9032 20.0419 27.6248 19.7634 27.6248 19.4199C27.6248 19.0768 27.9032 18.7979 28.2468 18.7979H31.5638C31.9068 18.7979 32.1858 19.0763 32.1858 19.4199C32.1858 19.7634 31.9068 20.0419 31.5638 20.0419Z" fill="black"/>
<circle cx="19.5" cy="19.5" r="19" stroke="black"/>
</svg>
