<svg width="39" height="39" viewBox="0 0 39 39" fill="none" xmlns="http://www.w3.org/2000/svg">
<path d="M19.2262 27.4088C14.6919 27.4088 11.0032 23.7201 11.0032 19.1857C11.0032 14.9315 14.1933 11.4138 18.4233 11.0031C18.6942 10.9762 18.95 11.1251 19.0617 11.3722C19.1739 11.6194 19.1167 11.9102 18.9192 12.0958C17.888 13.0666 17.3204 14.3762 17.3204 15.7841C17.3204 18.5803 19.5953 20.8553 22.3916 20.8553C23.9165 20.8553 25.3459 20.1775 26.3145 18.9969C26.4867 18.787 26.7737 18.7109 27.0263 18.8048C27.2804 18.8998 27.4455 19.1458 27.438 19.4167C27.3139 23.8981 23.7066 27.4088 19.2262 27.4088ZM16.8924 12.6295C14.1691 13.5873 12.2707 16.1677 12.2707 19.1857C12.2707 23.0213 15.3907 26.1413 19.2262 26.1413C22.4385 26.1413 25.1198 24.0071 25.926 21.0479C24.8932 21.7435 23.6688 22.1239 22.3916 22.1239C18.896 22.1239 16.0523 19.2807 16.0523 15.7846C16.0523 14.6557 16.3437 13.5776 16.8924 12.6295Z" fill="white"/>
<circle cx="19.5" cy="19.5" r="19" stroke="white"/>
</svg>
